<svg xmlns="http://www.w3.org/2000/svg" viewBox="0 0 500 500.1">
  <g id="Background">
    <rect width="500" height="500" style="fill: #1e35d6"/>
  </g>
  <g id="Objects">
    <path d="M464.58,205.56a49.68,49.68,0,1,1-49.68-49.67A49.67,49.67,0,0,1,464.58,205.56Z" style="fill: #fff"/>
    <path d="M133.23,359.5a49.67,49.67,0,1,1-49.67-49.67A49.67,49.67,0,0,1,133.23,359.5Z" style="fill: #fff"/>
    <path d="M469.09,375.74a49.67,49.67,0,1,1-49.67-49.67A49.67,49.67,0,0,1,469.09,375.74Z" style="fill: #fff"/>
    <path d="M397.65,83.57A49.67,49.67,0,1,1,348,33.9,49.67,49.67,0,0,1,397.65,83.57Z" style="fill: #fff"/>
    <path d="M131.94,196.5a49.67,49.67,0,1,1-49.67-49.67A49.67,49.67,0,0,1,131.94,196.5Z" style="fill: #fff"/>
    <g>
      <path d="M113.67,264.88a13.55,13.55,0,1,0,13.55,13.55A13.55,13.55,0,0,0,113.67,264.88Zm0,23.09a9.54,9.54,0,1,1,9.53-9.54A9.55,9.55,0,0,1,113.67,288Z" style="fill: #fff"/>
      <rect x="112.36" y="262" width="2.94" height="5.09" style="fill: #fff"/>
      <rect x="102.34" y="266.05" width="2.94" height="5.09" transform="translate(-159.52 152.08) rotate(-45)" style="fill: #fff"/>
      <rect x="97.04" y="277.06" width="5.08" height="2.94" style="fill: #fff"/>
      <rect x="101.08" y="287.08" width="5.09" height="2.94" transform="translate(-173.69 157.79) rotate(-45)" style="fill: #fff"/>
      <rect x="112.09" y="290.24" width="2.94" height="5.08" style="fill: #fff"/>
      <rect x="122.12" y="286.2" width="2.94" height="5.08" transform="translate(-167.95 171.89) rotate(-44.99)" style="fill: #fff"/>
      <rect x="125.28" y="277.33" width="5.09" height="2.94" style="fill: #fff"/>
      <rect x="121.24" y="267.31" width="5.08" height="2.94" transform="translate(-153.82 166.32) rotate(-45.01)" style="fill: #fff"/>
    </g>
    <g>
      <path d="M259.14,163a16.15,16.15,0,1,1,16.15-16.15A16.17,16.17,0,0,1,259.14,163Zm0-30.13a14,14,0,1,0,14,14A14,14,0,0,0,259.14,132.85Z" style="fill: #fff"/>
      <path d="M259.14,154.15c-7.83,0-16.15-2.4-16.15-6.86s8.32-6.86,16.15-6.86,16.15,2.4,16.15,6.86S267,154.15,259.14,154.15Zm0-11.56c-8.66,0-14,2.74-14,4.7s5.32,4.7,14,4.7,14-2.74,14-4.7S267.8,142.59,259.14,142.59Z" style="fill: #fff"/>
      <path d="M259.14,163c-6.24,0-11.31-7.24-11.31-16.15s5.07-16.14,11.31-16.14,11.31,7.24,11.31,16.14S265.38,163,259.14,163Zm0-30.13c-5,0-9.14,6.27-9.14,14s4.1,14,9.14,14,9.14-6.28,9.14-14S264.18,132.85,259.14,132.85Z" style="fill: #fff"/>
      <path d="M259.14,163c-3.77,0-4.78-10.15-4.78-16.15s1-16.14,4.78-16.14,4.78,10.15,4.78,16.14S262.92,163,259.14,163Zm0-30.12c-.93.45-2.62,5.53-2.62,14s1.69,13.52,2.62,14c.94-.46,2.62-5.53,2.62-14S260.08,133.31,259.14,132.86Z" style="fill: #fff"/>
    </g>
    <g>
      <rect x="55.03" y="345.55" width="45.76" height="30.95" style="fill: #ff5d5d"/>
      <polygon points="107.53 356.59 100.79 356.59 100.79 376.5 115.08 376.5 115.08 365.77 107.53 356.59" style="fill: #2b3045"/>
      <text transform="translate(58.33 364.46)" style="font-size: 9.803709983825684px;fill: #fff;font-family: Antonio-Bold, Antonio Bold;font-weight: 700">DELIVE<tspan x="28.62" y="0" style="letter-spacing: -0.01095726772591461em">R</tspan><tspan x="33.78" y="0">Y</tspan></text>
      <polygon points="113.56 365.77 102.02 365.77 102.02 357.68 106.9 357.68 108.68 359.83 113.56 365.77" style="fill: #00bfcc"/>
      <polygon points="108.68 357.8 102.02 364.46 102.02 355.38 106.9 355.38 108.68 357.8" style="fill: #fff;opacity: 0.2"/>
      <path d="M112.13,376.5a4.91,4.91,0,1,1-4.91-4.91A4.91,4.91,0,0,1,112.13,376.5Z" style="fill: #5d5d5d"/>
      <path d="M107.22,378.35a1.85,1.85,0,1,1,1.85-1.85A1.85,1.85,0,0,1,107.22,378.35Z" style="fill: #00294a"/>
      <path d="M69.76,376.5a4.91,4.91,0,1,1-4.91-4.91A4.91,4.91,0,0,1,69.76,376.5Z" style="fill: #5d5d5d"/>
      <path d="M64.85,378.35a1.85,1.85,0,1,1,1.85-1.85A1.85,1.85,0,0,1,64.85,378.35Z" style="fill: #00294a"/>
    </g>
    <g>
      <path d="M441.48,271.15l-.38,2.74a15,15,0,0,1,12.82,16.95v.07l2.73.38v-.07A17.81,17.81,0,0,0,441.48,271.15Z" style="fill: #fff"/>
      <path d="M440.53,278l-.38,2.74a8.13,8.13,0,0,1,6.93,9.15V290l2.74.38v-.07A10.89,10.89,0,0,0,440.53,278Z" style="fill: #fff"/>
      <path d="M441.6,289.14a2.59,2.59,0,1,1-2.21-2.93A2.58,2.58,0,0,1,441.6,289.14Z" style="fill: #fff"/>
      <path d="M441.7,279.54a1.37,1.37,0,1,1-1.17-1.54A1.38,1.38,0,0,1,441.7,279.54Z" style="fill: #fff"/>
      <path d="M449.82,290.28a1.37,1.37,0,1,1-1.17-1.55A1.37,1.37,0,0,1,449.82,290.28Z" style="fill: #fff"/>
      <path d="M456.65,291.29a1.37,1.37,0,0,1-1.54,1.17,1.38,1.38,0,0,1-1.16-1.55,1.36,1.36,0,0,1,2.7.38Z" style="fill: #fff"/>
      <path d="M442.65,272.69a1.37,1.37,0,1,1-1.17-1.54A1.38,1.38,0,0,1,442.65,272.69Z" style="fill: #fff"/>
    </g>
    <g>
      <path d="M340.6,311.82l.32,99.22a5.73,5.73,0,0,1-5.7,5.73l-164.45.54a5.73,5.73,0,0,1-5.73-5.69l-.32-99.22a5.72,5.72,0,0,1,5.68-5.72l164.46-.54A5.74,5.74,0,0,1,340.6,311.82Z" style="fill: #ebebeb"/>
      <rect x="174.08" y="316.09" width="9.15" height="9" transform="translate(-1.03 0.57) rotate(-0.18)" style="fill: #2b3045"/>
      <rect x="187.68" y="316.04" width="9.15" height="9" transform="translate(-1.16 0.7) rotate(-0.21)" style="fill: #2b3045"/>
      <rect x="201.27" y="316" width="9.15" height="9" transform="translate(-1.03 0.66) rotate(-0.18)" style="fill: #2b3045"/>
      <rect x="214.87" y="315.95" width="9.15" height="9" transform="translate(-1.03 0.7) rotate(-0.18)" style="fill: #2b3045"/>
      <rect x="228.46" y="315.91" width="9.15" height="9" transform="translate(-1.06 0.77) rotate(-0.19)" style="fill: #2b3045"/>
      <rect x="242.06" y="315.86" width="9.15" height="9" transform="translate(-1.06 0.82) rotate(-0.19)" style="fill: #2b3045"/>
      <rect x="255.06" y="315.86" width="9.15" height="9" transform="translate(-1.09 0.89) rotate(-0.2)" style="fill: #2b3045"/>
      <rect x="269.25" y="315.77" width="9.15" height="9" transform="translate(-1.06 0.91) rotate(-0.19)" style="fill: #2b3045"/>
      <rect x="282.84" y="315.73" width="9.14" height="9" transform="translate(-1.06 0.95) rotate(-0.19)" style="fill: #2b3045"/>
      <rect x="296.44" y="315.68" width="9.14" height="9" transform="translate(-0.99 0.93) rotate(-0.18)" style="fill: #2b3045"/>
      <rect x="310.03" y="315.64" width="9.14" height="9" transform="translate(-1.02 1.01) rotate(-0.18)" style="fill: #2b3045"/>
      <rect x="323.62" y="315.59" width="9.15" height="9" transform="translate(-1.09 1.12) rotate(-0.2)" style="fill: #2b3045"/>
      <rect x="174.13" y="330.39" width="21.43" height="9" transform="translate(-1.07 0.59) rotate(-0.18)" style="fill: #2b3045"/>
      <rect x="186.94" y="330.37" width="8.62" height="9" transform="translate(-1.06 0.61) rotate(-0.18)" style="fill: #2b3045"/>
      <rect x="199.75" y="330.33" width="8.62" height="9" transform="translate(-1.06 0.65) rotate(-0.18)" style="fill: #2b3045"/>
      <rect x="212.56" y="330.29" width="8.62" height="9" transform="translate(-1.06 0.69) rotate(-0.18)" style="fill: #2b3045"/>
      <rect x="225.37" y="330.25" width="8.62" height="9" transform="translate(-0.98 0.68) rotate(-0.17)" style="fill: #2b3045"/>
      <rect x="238.19" y="330.2" width="8.62" height="9" transform="translate(-1.14 0.83) rotate(-0.19)" style="fill: #2b3045"/>
      <rect x="251" y="330.16" width="8.62" height="9" transform="translate(-1.18 0.9) rotate(-0.2)" style="fill: #2b3045"/>
      <rect x="263.81" y="330.12" width="8.62" height="9" transform="translate(-1.1 0.88) rotate(-0.19)" style="fill: #2b3045"/>
      <rect x="276.62" y="330.08" width="8.62" height="9" transform="translate(-1.17 0.99) rotate(-0.2)" style="fill: #2b3045"/>
      <rect x="289.43" y="330.04" width="8.62" height="9" transform="translate(-1.02 0.9) rotate(-0.18)" style="fill: #2b3045"/>
      <rect x="302.24" y="329.97" width="21.43" height="9" transform="translate(-1.11 1.04) rotate(-0.19)" style="fill: #2b3045"/>
      <rect x="315.05" y="329.94" width="17.77" height="9" transform="translate(-1.1 1.07) rotate(-0.19)" style="fill: #2b3045"/>
      <rect x="174.18" y="344.74" width="9.14" height="9" transform="translate(-1.15 0.59) rotate(-0.19)" style="fill: #2b3045"/>
      <rect x="187.77" y="344.7" width="9.14" height="9" transform="translate(-1.16 0.64) rotate(-0.19)" style="fill: #2b3045"/>
      <rect x="201.37" y="344.65" width="9.14" height="9" transform="translate(-1.19 0.71) rotate(-0.2)" style="fill: #2b3045"/>
      <rect x="214.96" y="344.61" width="9.15" height="9" transform="translate(-1.12 0.71) rotate(-0.18)" style="fill: #2b3045"/>
      <rect x="228.56" y="344.56" width="9.15" height="9" transform="translate(-1.15 0.77) rotate(-0.19)" style="fill: #2b3045"/>
      <rect x="242.15" y="344.52" width="9.15" height="9" transform="translate(-1.15 0.82) rotate(-0.19)" style="fill: #2b3045"/>
      <rect x="255.74" y="344.48" width="9.15" height="9" transform="matrix(1, 0, 0, 1, -1.15, 0.86)" style="fill: #2b3045"/>
      <rect x="269.34" y="344.43" width="9.15" height="9" transform="translate(-1.23 0.97) rotate(-0.2)" style="fill: #2b3045"/>
      <rect x="282.93" y="344.39" width="9.15" height="9" transform="translate(-1.15 0.95) rotate(-0.19)" style="fill: #2b3045"/>
      <rect x="296.53" y="344.34" width="9.15" height="9" transform="translate(-1.19 1.03) rotate(-0.2)" style="fill: #2b3045"/>
      <rect x="310.12" y="344.3" width="9.15" height="9" transform="translate(-1.08 0.98) rotate(-0.18)" style="fill: #2b3045"/>
      <rect x="323.72" y="344.25" width="9.14" height="9" transform="translate(-1.12 1.05) rotate(-0.18)" style="fill: #2b3045"/>
      <rect x="174.22" y="359.07" width="8.74" height="9" transform="translate(-1.22 0.6) rotate(-0.19)" style="fill: #2b3045"/>
      <rect x="187.21" y="359.03" width="8.74" height="9" transform="translate(-1.18 0.62) rotate(-0.19)" style="fill: #2b3045"/>
      <rect x="200.2" y="358.99" width="8.74" height="9" transform="translate(-1.13 0.64) rotate(-0.18)" style="fill: #2b3045"/>
      <rect x="213.18" y="358.95" width="8.74" height="9" transform="translate(-1.22 0.73) rotate(-0.19)" style="fill: #2b3045"/>
      <rect x="226.17" y="358.9" width="8.74" height="9" transform="translate(-1.18 0.75) rotate(-0.19)" style="fill: #2b3045"/>
      <rect x="239.16" y="358.86" width="8.74" height="9" transform="translate(-1.14 0.77) rotate(-0.18)" style="fill: #2b3045"/>
      <rect x="252.14" y="358.82" width="8.74" height="9" transform="translate(-1.14 0.81) rotate(-0.18)" style="fill: #2b3045"/>
      <rect x="265.13" y="358.78" width="8.74" height="9" transform="translate(-1.22 0.91) rotate(-0.19)" style="fill: #2b3045"/>
      <rect x="278.11" y="358.73" width="8.74" height="9" transform="translate(-1.17 0.92) rotate(-0.19)" style="fill: #2b3045"/>
      <rect x="282.48" y="358.7" width="17.35" height="9" transform="translate(-1.16 0.94) rotate(-0.18)" style="fill: #2b3045"/>
      <rect x="304.09" y="358.65" width="8.74" height="9" transform="translate(-1.17 1) rotate(-0.19)" style="fill: #2b3045"/>
      <rect x="317.07" y="358.59" width="15.84" height="9" transform="translate(-1.14 1.02) rotate(-0.18)" style="fill: #2b3045"/>
      <rect x="174.27" y="373.4" width="9.15" height="9" transform="translate(-1.25 0.59) rotate(-0.19)" style="fill: #2b3045"/>
      <rect x="187.87" y="373.36" width="9.15" height="9" transform="translate(-1.25 0.64) rotate(-0.19)" style="fill: #2b3045"/>
      <rect x="201.46" y="373.31" width="9.15" height="9" transform="translate(-1.17 0.64) rotate(-0.18)" style="fill: #2b3045"/>
      <rect x="215.06" y="373.27" width="9.15" height="9" transform="translate(-1.25 0.73) rotate(-0.19)" style="fill: #2b3045"/>
      <rect x="228.65" y="373.16" width="49.93" height="9" transform="translate(-1.25 0.85) rotate(-0.19)" style="fill: #2b3045"/>
      <rect x="242.24" y="373.18" width="9.15" height="9" transform="translate(-1.17 0.77) rotate(-0.18)" style="fill: #2b3045"/>
      <rect x="255.84" y="373.13" width="9.15" height="9" transform="translate(-1.21 0.84) rotate(-0.18)" style="fill: #2b3045"/>
      <rect x="269.43" y="373.09" width="9.15" height="9" transform="translate(-1.29 0.94) rotate(-0.2)" style="fill: #2b3045"/>
      <rect x="283.03" y="373.05" width="9.15" height="9" transform="translate(-1.25 0.95) rotate(-0.19)" style="fill: #2b3045"/>
      <rect x="296.62" y="373" width="9.15" height="9" transform="translate(-1.17 0.93) rotate(-0.18)" style="fill: #2b3045"/>
      <rect x="310.22" y="372.96" width="9.15" height="9" transform="matrix(1, 0, 0, 1, -1.21, 1.01)" style="fill: #2b3045"/>
      <rect x="323.81" y="372.91" width="9.15" height="9" transform="translate(-1.24 1.09) rotate(-0.19)" style="fill: #2b3045"/>
      <rect x="228.73" y="387.73" width="49.93" height="24.25" transform="translate(-1.31 0.84) rotate(-0.19)" style="fill: #dedede"/>
    </g>
    <circle cx="179.64" cy="77.26" r="49.67" style="fill: #fff"/>
    <g>
      <g>
        <path d="M201.13,67.83V89.69a2.46,2.46,0,0,1-2.45,2.45h-41a2,2,0,0,1-.42,0,2.47,2.47,0,0,1-2-2.41V67.83a2.46,2.46,0,0,1,2.46-2.45h41A2.45,2.45,0,0,1,201.13,67.83Z" style="fill: #ff5d5d"/>
        <rect x="155.25" y="70.7" width="45.88" height="5.32" style="fill: #5d5d5d"/>
        <path d="M192.44,85a2.74,2.74,0,1,1-2.74-2.74A2.74,2.74,0,0,1,192.44,85Z" style="fill: #fff"/>
        <path d="M195.87,85a2.74,2.74,0,1,1-2.74-2.74A2.74,2.74,0,0,1,195.87,85Z" style="fill: #00294a"/>
      </g>
      <path d="M184,65.38l-5.32,5.32L173.36,76,157.29,92.1a2.47,2.47,0,0,1-2-2.41V67.83a2.46,2.46,0,0,1,2.46-2.45Z" style="fill: #fff;opacity: 0.5"/>
      <rect x="157.39" y="80.67" width="22.25" height="1.54" style="fill: #fff"/>
      <rect x="157.39" y="83.41" width="22.25" height="1.54" style="fill: #fff"/>
    </g>
    <polygon points="329.88 161.13 325.68 156.92 328.81 153.79 323.08 152.25 317.34 150.71 318.88 156.45 320.42 162.18 323.48 159.12 327.69 163.32 329.88 161.13" style="fill: #fff"/>
    <text transform="translate(360.71 291.1)" style="font-size: 29.75465965270996px;fill: #fff;font-family: ArialNarrow-Bold, Arial;font-weight: 700">@</text>
    <g>
      <rect x="408.2" y="189.11" width="11.22" height="29.16" style="fill: #ff9400"/>
      <rect x="422.29" y="195.96" width="5.53" height="22.31" style="fill: #ff5d5d"/>
      <path d="M409,226.75a3.81,3.81,0,1,1-3.81-3.8A3.81,3.81,0,0,1,409,226.75Z" style="fill: #2b3045"/>
      <path d="M431.62,226.75a3.8,3.8,0,1,1-3.8-3.8A3.8,3.8,0,0,1,431.62,226.75Z" style="fill: #2b3045"/>
      <path d="M432.39,218.84a.58.58,0,0,1-.58.58H400.74a.58.58,0,0,1-.57-.58h0a.58.58,0,0,1,.57-.57h31.07a.58.58,0,0,1,.58.57Z" style="fill: #2b3045"/>
      <path d="M431.4,219.42H401l-1.8-16.69h34ZM402,218.27h28.33l1.55-14.39H400.48Z" style="fill: #2b3045"/>
      <path d="M427.78,219.42H404.61l-1.35-16.69h25.87Zm-22.11-1.15h21.05l1.17-14.39H404.5Z" style="fill: #2b3045"/>
      <path d="M423.38,219.42H409l-.81-16.69h16Zm-13.28-1.15h12.19l.7-14.39H409.4Z" style="fill: #2b3045"/>
      <path d="M419.13,219.42h-5.87L413,202.73h6.45Zm-4.74-1.15H418l.25-14.39h-4.11Z" style="fill: #2b3045"/>
      <rect x="401.02" y="213.39" width="30.39" height="0.57" style="fill: #2b3045"/>
      <rect x="400.36" y="207.54" width="31.74" height="1.15" style="fill: #2b3045"/>
      <polygon points="433.12 203.38 431.98 203.24 433.79 188.54 439.54 188.54 439.54 189.68 434.81 189.68 433.12 203.38" style="fill: #2b3045"/>
      <polygon points="428.39 227.11 427.25 227.11 427.25 221.45 405.76 221.45 405.76 225.39 404.61 225.39 404.61 220.3 428.39 220.3 428.39 227.11" style="fill: #2b3045"/>
      <path d="M441.14,189.11a1.46,1.46,0,1,1-1.46-1.46A1.47,1.47,0,0,1,441.14,189.11Z" style="fill: #2b3045"/>
    </g>
    <g>
      <path d="M426.59,364.57l-7.72,2.8-3.54,7.75L428,410.07l18.93-6.86-12.65-34.95Zm-2.47,5.25a1.49,1.49,0,1,1,.9-1.91A1.49,1.49,0,0,1,424.12,369.82Z" style="fill: #ff5d5d"/>
      <path d="M422.25,367.81s4.78,1.46,3.47-6.8S419,346.86,418,353s2.52,13.73,2.52,13.73" style="fill: none;stroke: #2b3045;stroke-miterlimit: 10"/>
      <path d="M418.19,356.83l-7.94-2.1-7.32,4.36L393.43,395l19.46,5.14,9.5-35.93Zm-5,2.91a1.5,1.5,0,1,1,1.83-1.06A1.49,1.49,0,0,1,413.17,359.74Z" style="fill: #ffae34"/>
      <path d="M412.78,357s3.1,3.92,6.72-3.61,2.51-15.48-1.76-10.94S412,355.2,412,355.2" style="fill: none;stroke: #2b3045;stroke-miterlimit: 10"/>
    </g>
    <g>
      <rect x="318.84" y="63.18" width="59.5" height="37.69" style="fill: #00bfcc"/>
      <rect x="318.84" y="68.68" width="59.5" height="4.5" style="fill: #ffae34"/>
      <g>
        <g>
          <path d="M356,74.65a12.71,12.71,0,1,0-1.27,19.09,13.52,13.52,0,0,0,2.39-2.39A12.73,12.73,0,0,0,356,74.65ZM339.89,90.71l-.09-.1a9.92,9.92,0,0,1-1.49-2,7.88,7.88,0,0,1-.37-.7,9.5,9.5,0,0,1-.71-2c0-.12-.06-.25-.08-.38l-.06-.33a2.36,2.36,0,0,1,0-.28c0-.2-.05-.41-.06-.61s0-.16,0-.25a10,10,0,0,1,10.4-10.4h.25l.61.06a1.37,1.37,0,0,1,.28,0l.33,0,.38.08a9.83,9.83,0,0,1,4,1.95,3,3,0,0,1,.34.28l.37.34.1.1a10,10,0,1,1-14.15,14.14Z" style="fill: #fff"/>
          <path d="M354,90.71a10,10,0,0,1-14.15,0l-.09-.1a10,10,0,0,1,14.14-14.14l.1.1A10,10,0,0,1,354,90.71Z" style="fill: #fff;opacity: 0.30000000000000004"/>
          <rect x="354.62" y="91.46" width="3.38" height="3.04" transform="translate(38.61 279.18) rotate(-45)" style="fill: #fff"/>
          <path d="M372.89,109.51a2.76,2.76,0,0,1-3.91,0l-2.66-2.66L359.44,100,357,97.52a2.75,2.75,0,0,1-.79-2.28,2.78,2.78,0,0,1,2.75-2.45,2.76,2.76,0,0,1,2,.81l2.46,2.46,9.53,9.53A2.76,2.76,0,0,1,372.89,109.51Z" style="fill: #2b3045"/>
          <path d="M353.94,76.47,339.8,90.61a10,10,0,0,1,14.14-14.14Z" style="fill: #fff;opacity: 0.5"/>
        </g>
        <rect x="362.07" y="96.59" width="5.54" height="9.72" transform="translate(35.26 287.94) rotate(-45.04)" style="fill: #2b3045"/>
      </g>
    </g>
    <g>
      <path d="M83.19,177.72a7,7,0,0,0-7-6.95h0a7,7,0,0,0-6.95,6.95v4.43a7,7,0,0,0,6.95,6.95h0a7,7,0,0,0,7-6.95Z" style="fill: none;stroke: #2b3045;stroke-miterlimit: 10;stroke-width: 2px"/>
      <polygon points="88.14 179.94 76.7 179.94 75.78 179.94 64.34 179.94 56.95 218.1 75.78 218.1 76.7 218.1 95.53 218.1 88.14 179.94" style="fill: #ff9400"/>
      <path d="M70.19,182.43a.92.92,0,1,1-.92-.91A.92.92,0,0,1,70.19,182.43Z" style="fill: #2b3045"/>
      <path d="M84.1,182.43a.92.92,0,1,1-.91-.91A.92.92,0,0,1,84.1,182.43Z" style="fill: #2b3045"/>
      <rect x="74.36" y="206.35" width="33.12" height="11.75" style="fill: #2b3045"/>
      <rect x="71.11" y="201.35" width="39.75" height="5" style="fill: #ff5d5d"/>
      <rect x="90.36" y="201.35" width="1.93" height="16.75" style="fill: #00bfcc"/>
      <path d="M91,200.81s-2.21-4.51-3.37-4.3-.67,4.84-.67,4.84h4.38Z" style="fill: #00bfcc"/>
      <path d="M91.66,200.81s2.21-4.51,3.38-4.3.66,4.84.66,4.84H91.32Z" style="fill: #00bfcc"/>
    </g>
    <g>
      <path d="M419.76,125.22a4.86,4.86,0,1,1-4.86-4.86A4.86,4.86,0,0,1,419.76,125.22Z" style="fill: #fff"/>
      <path d="M431.76,134.94a2.49,2.49,0,1,1-2.48-2.49A2.48,2.48,0,0,1,431.76,134.94Z" style="fill: #2b3045"/>
      <path d="M272.93,85a2.48,2.48,0,1,1-2.48-2.48A2.49,2.49,0,0,1,272.93,85Z" style="fill: #2b3045"/>
      <path d="M198.44,170.77a2.48,2.48,0,1,1-2.48-2.49A2.48,2.48,0,0,1,198.44,170.77Z" style="fill: #2b3045"/>
      <path d="M401.69,310.51A2.49,2.49,0,1,1,399.2,308,2.49,2.49,0,0,1,401.69,310.51Z" style="fill: #2b3045"/>
      <path d="M57.51,267.25A2.49,2.49,0,1,1,55,264.76,2.48,2.48,0,0,1,57.51,267.25Z" style="fill: #2b3045"/>
      <path d="M116,100.87a2.49,2.49,0,1,1-2.49-2.48A2.49,2.49,0,0,1,116,100.87Z" style="fill: #2b3045"/>
      <path d="M139.9,414.55a2.49,2.49,0,1,1-2.49-2.49A2.48,2.48,0,0,1,139.9,414.55Z" style="fill: #2b3045"/>
      <circle cx="71.11" cy="438.33" r="2.48" style="fill: #2b3045"/>
      <path d="M409.58,456a2.49,2.49,0,1,1-2.48-2.49A2.48,2.48,0,0,1,409.58,456Z" style="fill: #2b3045"/>
      <path d="M421.36,295.33a4.86,4.86,0,1,1-4.86-4.86A4.85,4.85,0,0,1,421.36,295.33Z" style="fill: #fff"/>
      <path d="M74.62,288.72a4.86,4.86,0,1,1-4.86-4.86A4.87,4.87,0,0,1,74.62,288.72Z" style="fill: #fff"/>
      <circle cx="260.32" cy="66.07" r="4.86" style="fill: #fff"/>
      <circle cx="115.72" cy="130.08" r="4.86" style="fill: #fff"/>
      <circle cx="169.63" cy="157.02" r="6.8" style="fill: #fff"/>
      <circle cx="427.82" cy="82.37" r="6.8" style="fill: #fff"/>
      <circle cx="55.03" cy="103.76" r="6.8" transform="translate(-49.38 157.55) rotate(-89.32)" style="fill: #fff"/>
      <circle cx="365.23" cy="438.33" r="6.8" style="fill: #fff"/>
      <circle cx="137.41" cy="438.33" r="6.8" style="fill: #fff"/>
    </g>
    <g>
      <path d="M312.72,471.15l-.11-34.64-.1-28-.06-19.64c0-2.62-2.48-4.74-5.53-4.73s-5.5,2.14-5.49,4.76l0,9h0l-.06-16c0-2.61-2.48-4.73-5.52-4.72a5.42,5.42,0,0,0-5.34,3.63v-4.11c0-3.06-2.91-5.53-6.47-5.52s-6.44,2.5-6.43,5.57l0,5.61c-1.4-11.28-3-24.06-3-24.32-.55-3.59-.13-7.13-5.47-7.15-6,0-5.11,4.92-5.11,4.92l1,58-3.31-7.32s-.82-10.17-2.76-13.85-8.4-1.69-8.4-1.69l-.44,15.26,5.2,20.06,23.21,24.24.06,20.82,12.21,0h0Zm-28.53-59.6V412l-.19-.55Z" style="fill: #ffa979"/>
      <polygon points="318.46 458.5 279.36 458.63 266.33 458.67 266.46 500.1 318.6 499.93 318.46 458.5" style="fill: #ff4c37"/>
      <rect x="269.5" y="451.5" width="45.54" height="7" style="fill: #fff"/>
    </g>
    <g>
      <path d="M340.45,298.3a5.71,5.71,0,0,1-5.7,5.72l-164.45.54a5.7,5.7,0,0,1-1.1-.1,5.59,5.59,0,0,1-3.7-2.53,5.5,5.5,0,0,1-.92-3.05l-.32-97.18a5.71,5.71,0,0,1,5.68-5.72l108.1-.36,56.36-.18a5.73,5.73,0,0,1,5.74,5.68Z" style="fill: #2b3045"/>
      <rect x="172.69" y="206.7" width="157.92" height="91.88" transform="translate(-0.83 0.83) rotate(-0.19)" style="fill: #53b9bc"/>
      <rect x="172.6" y="222.01" width="157.92" height="13.53" transform="matrix(1, 0, 0, 1, -0.75, 0.83)" style="fill: #ff9400"/>
      <path d="M264.41,204.79a1,1,0,0,1-1,1l-21.67.07a1,1,0,0,1-1-1h0a1,1,0,0,1,1-1l21.67-.07a1,1,0,0,1,1,1Z" style="fill: #191c29"/>
      <text transform="translate(187.2 272.51)" style="font-size: 15px;fill: #fff;font-family: BRAVEEightyone-Regular, BRAVE Eightyone"><tspan style="letter-spacing: -0.029979947207588557em">C</tspan><tspan x="12.35" y="0">ybe</tspan><tspan x="43.35" y="0" style="letter-spacing: -0.11002444677817631em">rT</tspan><tspan x="60.21" y="0" style="letter-spacing: 0.00003265789456164332em">ech Mart</tspan></text>
      <rect x="172.65" y="206.93" width="8.32" height="16.59" style="fill: #ff5d5d"/>
      <rect x="180.97" y="206.93" width="8.32" height="16.59" style="fill: #fff"/>
      <rect x="189.29" y="206.93" width="8.32" height="16.59" style="fill: #ff5d5d"/>
      <rect x="197.61" y="206.93" width="8.32" height="16.59" style="fill: #fff"/>
      <rect x="205.93" y="206.79" width="8.32" height="16.59" style="fill: #ff5d5d"/>
      <rect x="214.24" y="206.79" width="8.32" height="16.59" style="fill: #fff"/>
      <rect x="222.56" y="206.79" width="8.32" height="16.59" style="fill: #ff5d5d"/>
      <rect x="230.88" y="206.79" width="8.32" height="16.59" style="fill: #fff"/>
      <rect x="239.2" y="206.79" width="8.32" height="16.59" style="fill: #ff5d5d"/>
      <rect x="247.52" y="206.79" width="8.32" height="16.59" style="fill: #fff"/>
      <path d="M181,223.52a4.16,4.16,0,1,0-4.16,4.16A4.16,4.16,0,0,0,181,223.52Z" style="fill: #ff5d5d"/>
      <path d="M189.29,223.52a4.16,4.16,0,1,0-4.16,4.16A4.16,4.16,0,0,0,189.29,223.52Z" style="fill: #fff"/>
      <path d="M197.61,223.52a4.16,4.16,0,1,0-4.16,4.16A4.16,4.16,0,0,0,197.61,223.52Z" style="fill: #ff5d5d"/>
      <path d="M205.93,223.52a4.16,4.16,0,1,0-4.16,4.16A4.16,4.16,0,0,0,205.93,223.52Z" style="fill: #fff"/>
      <path d="M214.24,223.38a4.16,4.16,0,1,0-4.16,4.16A4.16,4.16,0,0,0,214.24,223.38Z" style="fill: #ff5d5d"/>
      <path d="M222.56,223.38a4.16,4.16,0,1,0-4.16,4.16A4.16,4.16,0,0,0,222.56,223.38Z" style="fill: #fff"/>
      <circle cx="226.72" cy="223.38" r="4.16" style="fill: #ff5d5d"/>
      <path d="M239.2,223.38a4.16,4.16,0,1,0-4.16,4.16A4.16,4.16,0,0,0,239.2,223.38Z" style="fill: #fff"/>
      <path d="M247.52,223.38a4.16,4.16,0,1,0-4.16,4.16A4.16,4.16,0,0,0,247.52,223.38Z" style="fill: #ff5d5d"/>
      <path d="M255.84,223.38a4.16,4.16,0,1,0-4.16,4.16A4.16,4.16,0,0,0,255.84,223.38Z" style="fill: #fff"/>
      <rect x="255.77" y="206.61" width="8.32" height="16.59" style="fill: #ff5d5d"/>
      <rect x="264.09" y="206.61" width="8.32" height="16.59" style="fill: #fff"/>
      <rect x="272.41" y="206.61" width="8.32" height="16.59" style="fill: #ff5d5d"/>
      <rect x="280.73" y="206.61" width="8.32" height="16.59" style="fill: #fff"/>
      <rect x="289.04" y="206.61" width="8.32" height="16.59" style="fill: #ff5d5d"/>
      <rect x="297.36" y="206.61" width="8.32" height="16.59" style="fill: #fff"/>
      <rect x="305.68" y="206.45" width="8.32" height="16.59" style="fill: #ff5d5d"/>
      <rect x="314" y="206.45" width="8.32" height="16.59" style="fill: #fff"/>
      <rect x="322.32" y="206.45" width="8.32" height="16.59" style="fill: #ff5d5d"/>
      <circle cx="259.93" cy="223.2" r="4.16" style="fill: #ff5d5d"/>
      <path d="M272.41,223.2a4.16,4.16,0,1,0-4.16,4.16A4.16,4.16,0,0,0,272.41,223.2Z" style="fill: #fff"/>
      <path d="M280.73,223.2a4.16,4.16,0,1,0-4.16,4.16A4.16,4.16,0,0,0,280.73,223.2Z" style="fill: #ff5d5d"/>
      <path d="M289,223.2a4.16,4.16,0,1,0-4.16,4.16A4.16,4.16,0,0,0,289,223.2Z" style="fill: #fff"/>
      <path d="M297.36,223.2a4.16,4.16,0,1,0-4.16,4.16A4.16,4.16,0,0,0,297.36,223.2Z" style="fill: #ff5d5d"/>
      <path d="M305.68,223.2a4.16,4.16,0,1,0-4.16,4.16A4.16,4.16,0,0,0,305.68,223.2Z" style="fill: #fff"/>
      <path d="M314,223a4.16,4.16,0,1,0-4.16,4.16A4.16,4.16,0,0,0,314,223Z" style="fill: #ff5d5d"/>
      <path d="M322.32,223a4.16,4.16,0,1,0-4.16,4.16A4.16,4.16,0,0,0,322.32,223Z" style="fill: #fff"/>
      <path d="M330.64,223a4.16,4.16,0,1,0-4.16,4.16A4.17,4.17,0,0,0,330.64,223Z" style="fill: #ff5d5d"/>
      <path d="M278,195.62,169.2,304.46a5.59,5.59,0,0,1-3.7-2.53,5.5,5.5,0,0,1-.92-3.05l-.32-97.18a5.71,5.71,0,0,1,5.68-5.72Z" style="fill: #fff;opacity: 0.5"/>
    </g>
  </g>
</svg>
