<svg width="915" height="72" viewBox="0 0 915 72" fill="none" xmlns="http://www.w3.org/2000/svg">
<path d="M11.2617 56C8.38172 56 5.93372 54.992 3.91773 52.976C1.90173 50.96 0.893725 48.512 0.893725 45.632V14.528C0.893725 11.648 1.90173 9.2 3.91773 7.184C5.93372 5.168 8.38172 4.16 11.2617 4.16H52.5897V14.528H13.6377C12.1977 14.528 11.4297 14.576 11.3337 14.672C11.2857 14.768 11.2617 15.536 11.2617 16.976V43.184C11.2617 44.624 11.2857 45.392 11.3337 45.488C11.4297 45.584 12.1977 45.632 13.6377 45.632H52.5897V56H11.2617ZM87.4569 71.192V60.896H110.425C111.913 60.896 112.681 60.848 112.729 60.752C112.825 60.704 112.873 59.96 112.873 58.52V56H90.9129C88.1289 56 85.7289 54.992 83.7129 52.976C81.6969 50.96 80.6889 48.584 80.6889 45.848V14.384H90.9129V43.328C90.9129 44.768 90.9609 45.536 91.0569 45.632C91.1529 45.728 91.9209 45.776 93.3609 45.776H110.425C111.913 45.776 112.681 45.728 112.729 45.632C112.825 45.536 112.873 44.768 112.873 43.328V14.384H123.097V61.04C123.097 63.872 122.089 66.272 120.073 68.24C118.105 70.208 115.729 71.192 112.945 71.192H87.4569ZM152.442 56V0.559997H162.666V14.24H184.626C187.458 14.24 189.858 15.248 191.826 17.264C193.794 19.28 194.778 21.656 194.778 24.392V45.848C194.778 48.584 193.794 50.96 191.826 52.976C189.858 54.992 187.458 56 184.626 56H152.442ZM165.114 45.776H182.178C183.618 45.776 184.362 45.728 184.41 45.632C184.506 45.536 184.554 44.768 184.554 43.328V26.912C184.554 25.472 184.506 24.704 184.41 24.608C184.362 24.512 183.618 24.464 182.178 24.464H165.114C163.674 24.464 162.906 24.512 162.81 24.608C162.714 24.704 162.666 25.472 162.666 26.912V43.328C162.666 44.768 162.714 45.536 162.81 45.632C162.906 45.728 163.674 45.776 165.114 45.776ZM232.001 56C229.265 56 226.889 54.992 224.873 52.976C222.857 50.96 221.849 48.584 221.849 45.848V24.392C221.849 21.656 222.857 19.28 224.873 17.264C226.889 15.248 229.265 14.24 232.001 14.24H254.033C256.865 14.24 259.265 15.248 261.233 17.264C263.201 19.28 264.185 21.656 264.185 24.392V40.232H232.073V43.328C232.073 44.768 232.121 45.536 232.217 45.632C232.313 45.728 233.081 45.776 234.521 45.776H264.185V56H232.001ZM232.073 31.16H253.961V26.912C253.961 25.472 253.913 24.704 253.817 24.608C253.769 24.512 253.001 24.464 251.513 24.464H234.521C233.081 24.464 232.313 24.512 232.217 24.608C232.121 24.704 232.073 25.472 232.073 26.912V31.16ZM292.881 56V24.392C292.881 21.656 293.889 19.28 295.905 17.264C297.921 15.248 300.321 14.24 303.105 14.24H326.217V24.464H305.553C304.113 24.464 303.345 24.512 303.249 24.608C303.153 24.704 303.105 25.472 303.105 26.912V56H292.881ZM370.671 56V14.528H349.935V4.16H401.775V14.528H381.039V56H370.671ZM438.551 56C435.815 56 433.439 54.992 431.423 52.976C429.407 50.96 428.399 48.584 428.399 45.848V24.392C428.399 21.656 429.407 19.28 431.423 17.264C433.439 15.248 435.815 14.24 438.551 14.24H460.583C463.415 14.24 465.815 15.248 467.783 17.264C469.751 19.28 470.735 21.656 470.735 24.392V40.232H438.623V43.328C438.623 44.768 438.671 45.536 438.767 45.632C438.863 45.728 439.631 45.776 441.071 45.776H470.735V56H438.551ZM438.623 31.16H460.511V26.912C460.511 25.472 460.463 24.704 460.367 24.608C460.319 24.512 459.551 24.464 458.063 24.464H441.071C439.631 24.464 438.863 24.512 438.767 24.608C438.671 24.704 438.623 25.472 438.623 26.912V31.16ZM508.245 56C505.509 56 503.133 54.992 501.117 52.976C499.101 50.96 498.093 48.584 498.093 45.848V24.392C498.093 21.656 499.101 19.28 501.117 17.264C503.133 15.248 505.509 14.24 508.245 14.24H540.357V24.464H510.765C509.325 24.464 508.557 24.512 508.461 24.608C508.365 24.704 508.317 25.472 508.317 26.912V43.328C508.317 44.768 508.365 45.536 508.461 45.632C508.557 45.728 509.325 45.776 510.765 45.776H540.429V56H508.245ZM568.003 56V0.559997H578.227V14.24H600.187C602.971 14.24 605.347 15.248 607.315 17.264C609.331 19.28 610.339 21.656 610.339 24.392V56H600.115V26.912C600.115 25.472 600.067 24.704 599.971 24.608C599.923 24.512 599.179 24.464 597.739 24.464H580.675C579.235 24.464 578.467 24.512 578.371 24.608C578.275 24.704 578.227 25.472 578.227 26.912V56H568.003Z" fill="black"/>
<path d="M682.081 56V4.16H693.025L711.241 25.832L729.385 4.16H740.401V56H730.033V19.568L711.241 41.96L692.449 19.64V56H682.081ZM779.78 56C776.996 56 774.596 54.992 772.58 52.976C770.612 50.96 769.628 48.584 769.628 45.848V30.008H801.74V26.912C801.74 25.472 801.692 24.704 801.596 24.608C801.548 24.512 800.78 24.464 799.292 24.464H769.628V14.24H801.812C804.644 14.24 807.044 15.248 809.012 17.264C810.98 19.28 811.964 21.656 811.964 24.392V56H779.78ZM782.3 45.776H801.74V39.08H779.852V43.328C779.852 44.768 779.9 45.536 779.996 45.632C780.092 45.728 780.86 45.776 782.3 45.776ZM839.462 56V24.392C839.462 21.656 840.47 19.28 842.486 17.264C844.502 15.248 846.902 14.24 849.686 14.24H872.798V24.464H852.134C850.694 24.464 849.926 24.512 849.83 24.608C849.734 24.704 849.686 25.472 849.686 26.912V56H839.462ZM909.116 56C906.332 56 903.932 54.992 901.916 52.976C899.9 50.96 898.892 48.584 898.892 45.848V1.64H909.116V14.24H925.028V24.464H909.116V43.328C909.116 44.768 909.164 45.536 909.26 45.632C909.356 45.728 910.124 45.776 911.564 45.776H925.028V56H909.116Z" fill="#0B15FF"/>
</svg>
